<svg width="589" height="170" viewBox="0 0 589 170" fill="none" xmlns="http://www.w3.org/2000/svg">
<g clip-path="url(#clip0_153_2)">
<path d="M163.855 131.215C157.572 135.565 151.675 137.74 146.165 137.74C140.655 137.74 136.74 136.435 134.42 133.825C132.197 131.215 131.085 127.783 131.085 123.53C131.085 119.277 133.357 108.353 137.9 90.76C142.443 73.07 144.715 62.0983 144.715 57.845C144.715 52.5283 142.83 49.87 139.06 49.87C135.29 49.87 130.167 52.6733 123.69 58.28C123.497 59.0533 121.902 64.95 118.905 75.97C112.332 100.137 108.803 119.615 108.32 134.405C104.55 135.855 97.735 136.58 87.875 136.58H85.99C85.99 130.587 88.5517 116.763 93.675 95.11C98.7983 73.4567 101.36 60.8417 101.36 57.265C101.36 52.335 99.3783 49.87 95.415 49.87C91.1617 49.87 85.6033 52.8667 78.74 58.86C78.74 78.58 75.26 97.0433 68.3 114.25C65.0133 122.37 60.7117 128.992 55.395 134.115C50.175 139.142 44.7617 141.655 39.155 141.655C33.645 141.655 29.295 139.963 26.105 136.58C23.0117 133.293 21.465 128.702 21.465 122.805C21.465 116.812 23.5917 109.803 27.845 101.78C32.0983 93.66 36.5933 86.7483 41.33 81.045C46.1633 75.245 51.0933 70.025 56.12 65.385C56.12 56.4917 55.0567 51.1267 52.93 49.29C51.8667 48.42 50.32 47.985 48.29 47.985C46.3567 47.985 43.4567 48.855 39.59 50.595C35.82 52.335 32.195 54.7033 28.715 57.7L25.09 52.625C28.4733 48.4683 33.5483 44.4567 40.315 40.59C47.0817 36.7233 53.075 34.79 58.295 34.79C63.6117 34.79 67.7683 36.1917 70.765 38.995C73.8583 41.7017 76.0333 45.1817 77.29 49.435C90.63 38.5117 101.167 33.05 108.9 33.05C112.767 33.05 116.053 34.2583 118.76 36.675C121.563 39.0917 123.352 42.7167 124.125 47.55C135.532 37.8833 145.053 33.05 152.69 33.05C156.943 33.05 160.52 34.7417 163.42 38.125C166.417 41.5083 167.915 46.1 167.915 51.9C167.915 57.6033 165.547 69.155 160.81 86.555C156.073 103.955 153.705 114.975 153.705 119.615C153.705 124.158 155.155 126.43 158.055 126.43C159.022 126.43 160.23 126.188 161.68 125.705L163.855 131.215ZM36.4 127.88C40.2667 127.88 44.085 123.095 47.855 113.525C51.7217 103.858 54.3317 91.775 55.685 77.275C49.4983 83.655 43.94 91.2433 39.01 100.04C34.08 108.74 31.615 115.555 31.615 120.485C31.615 125.415 33.21 127.88 36.4 127.88ZM196.863 137.74C190.193 137.74 184.973 135.42 181.203 130.78C177.433 126.043 175.548 119.47 175.548 111.06C175.548 100.33 178.4 91.0983 184.103 83.365C189.903 75.6317 197.878 71.765 208.028 71.765L213.248 72.055C214.891 71.185 216.728 70.75 218.758 70.75C226.395 70.75 230.213 77.9517 230.213 92.355C234.176 92.1617 238.188 91.63 242.248 90.76L244.568 90.18L245.438 95.835C242.248 97.1883 237.946 98.3967 232.533 99.46L229.633 100.04C227.796 110.19 224.075 119.035 218.468 126.575C212.861 134.018 205.66 137.74 196.863 137.74ZM204.693 125.27C208.753 125.27 212.378 122.66 215.568 117.44C218.855 112.22 221.126 106.71 222.383 100.91C212.04 100.91 206.868 97.0433 206.868 89.31C206.868 86.2167 207.496 83.3167 208.753 80.61L209.478 79.16C209.091 78.9667 208.608 78.87 208.028 78.87C207.448 78.87 207.013 78.9667 206.723 79.16C204.306 80.7067 202.035 84.3317 199.908 90.035C197.781 95.7383 196.718 102.263 196.718 109.61C196.718 120.05 199.376 125.27 204.693 125.27ZM237.685 136.435H234.93C234.93 131.892 236.283 123.192 238.99 110.335C241.793 97.4783 243.195 90.18 243.195 88.44C243.195 85.25 241.842 81.8667 239.135 78.29L237.83 76.55L237.975 74.665C243.195 73.215 251.557 72.49 263.06 72.49C264.317 74.1333 264.993 77.13 265.09 81.48C273.5 75.0033 280.605 71.765 286.405 71.765C289.885 71.765 292.64 72.9733 294.67 75.39C296.797 77.8067 297.86 80.8517 297.86 84.525C297.86 88.1017 296.748 94.3367 294.525 103.23C292.302 112.123 291.19 118.117 291.19 121.21C291.19 124.207 291.577 125.705 292.35 125.705C292.93 125.705 294.96 124.787 298.44 122.95L300.18 122.08L302.79 127.155C301.92 127.928 300.76 128.895 299.31 130.055C297.86 131.215 295.153 132.81 291.19 134.84C287.323 136.773 283.843 137.74 280.75 137.74C273.693 137.74 270.165 133.728 270.165 125.705C270.165 122.322 271.228 116.087 273.355 107C275.578 97.9133 276.69 92.065 276.69 89.455C276.69 86.845 275.868 85.54 274.225 85.54C271.422 85.54 267.99 86.7483 263.93 89.165C263.64 90.8083 262.673 95.1583 261.03 102.215C257.647 117.392 255.955 128.122 255.955 134.405C252.572 135.758 246.482 136.435 237.685 136.435ZM337.418 80.755C337.418 84.815 336.113 91.8233 333.503 101.78C330.893 111.64 329.588 118.117 329.588 121.21C329.588 124.207 330.023 125.705 330.893 125.705C331.473 125.705 333.696 124.787 337.563 122.95L339.303 122.08L341.768 127.155C340.898 127.928 339.738 128.895 338.288 130.055C336.838 131.215 334.131 132.81 330.168 134.84C326.204 136.773 322.531 137.74 319.148 137.74C315.764 137.74 313.106 136.725 311.173 134.695C309.239 132.568 308.273 129.765 308.273 126.285C308.273 122.708 309.481 116.425 311.898 107.435C314.314 98.3483 315.523 92.4517 315.523 89.745C315.523 85.685 314.266 81.8667 311.753 78.29L310.448 76.55L310.593 74.665C315.716 73.215 324.029 72.49 335.533 72.49C336.789 73.94 337.418 76.695 337.418 80.755ZM320.888 56.685C318.954 54.7517 317.988 52.19 317.988 49C317.988 45.81 319.293 43.0067 321.903 40.59C324.609 38.1733 327.703 36.965 331.183 36.965C334.663 36.965 337.369 37.9317 339.303 39.865C341.236 41.7983 342.203 44.36 342.203 47.55C342.203 50.6433 340.801 53.3983 337.998 55.815C335.291 58.2317 332.246 59.44 328.863 59.44C325.479 59.44 322.821 58.5217 320.888 56.685ZM392.295 73.505C392.101 75.9217 391.28 78.725 389.83 81.915C386.156 81.5283 382.676 81.335 379.39 81.335H376.78C372.333 102.892 370.11 116.328 370.11 121.645C370.11 124.448 370.69 125.85 371.85 125.85C373.106 125.85 376.345 124.642 381.565 122.225L384.175 127.01C375.571 134.163 367.596 137.74 360.25 137.74C356.866 137.74 354.063 136.677 351.84 134.55C349.713 132.423 348.65 129.62 348.65 126.14C348.65 122.563 349.036 118.552 349.81 114.105C350.68 109.658 351.84 104.245 353.29 97.865C354.74 91.3883 355.803 86.1683 356.48 82.205C352.903 82.495 350.245 82.785 348.505 83.075C348.311 81.915 348.215 80.3683 348.215 78.435C348.215 76.405 348.36 74.7617 348.65 73.505H357.785C358.558 68.285 358.945 63.355 358.945 58.715L358.8 54.22V53.785C366.34 51.175 373.445 49.87 380.115 49.87C380.501 51.8033 380.695 54.22 380.695 57.12C380.695 60.02 379.873 65.4817 378.23 73.505H392.295ZM410.398 137.74C403.728 137.74 398.508 135.42 394.738 130.78C390.968 126.043 389.083 119.47 389.083 111.06C389.083 100.33 391.935 91.0983 397.638 83.365C403.438 75.6317 411.413 71.765 421.563 71.765L426.783 72.055C428.426 71.185 430.263 70.75 432.293 70.75C439.93 70.75 443.748 77.9517 443.748 92.355C447.711 92.1617 451.723 91.63 455.783 90.76L458.103 90.18L458.973 95.835C455.783 97.1883 451.481 98.3967 446.068 99.46L443.168 100.04C441.331 110.19 437.61 119.035 432.003 126.575C426.396 134.018 419.195 137.74 410.398 137.74ZM418.228 125.27C422.288 125.27 425.913 122.66 429.103 117.44C432.39 112.22 434.661 106.71 435.918 100.91C425.575 100.91 420.403 97.0433 420.403 89.31C420.403 86.2167 421.031 83.3167 422.288 80.61L423.013 79.16C422.626 78.9667 422.143 78.87 421.563 78.87C420.983 78.87 420.548 78.9667 420.258 79.16C417.841 80.7067 415.57 84.3317 413.443 90.035C411.316 95.7383 410.253 102.263 410.253 109.61C410.253 120.05 412.911 125.27 418.228 125.27ZM450.347 136.435H449.332C449.138 135.662 449.042 133.922 449.042 131.215C449.042 128.412 450.347 120.968 452.957 108.885C455.567 96.8017 456.872 89.89 456.872 88.15C456.872 85.1533 455.518 81.8667 452.812 78.29L451.507 76.55L451.652 74.665C456.872 73.215 465.233 72.49 476.737 72.49C477.897 75.0033 478.477 78.5317 478.477 83.075C479.54 81.335 481.763 79.015 485.147 76.115C488.53 73.215 492.01 71.765 495.587 71.765C500.807 71.765 503.417 76.3083 503.417 85.395C502.933 85.975 502.257 86.7483 501.387 87.715C500.613 88.585 498.97 89.8417 496.457 91.485C494.04 93.1283 491.672 94.1433 489.352 94.53C489.255 94.53 488.433 93.225 486.887 90.615C485.34 88.005 484.18 86.7 483.407 86.7C480.99 87.57 478.863 89.02 477.027 91.05C472.58 111.06 470.357 124.013 470.357 129.91C470.357 132.037 470.405 133.535 470.502 134.405C467.118 135.758 460.4 136.435 450.347 136.435ZM568.994 127.155C560.777 134.212 553.527 137.74 547.244 137.74C541.057 137.74 537.481 134.647 536.514 128.46C533.614 131.36 530.376 133.632 526.799 135.275C523.222 136.918 520.081 137.74 517.374 137.74C512.734 137.74 508.771 135.71 505.484 131.65C502.197 127.59 500.554 121.307 500.554 112.8C500.554 100.04 503.261 90.035 508.674 82.785C514.087 75.4383 520.177 71.765 526.944 71.765C533.807 71.765 539.559 73.3117 544.199 76.405C547.196 60.745 548.694 48.42 548.694 39.43L547.969 33.34C555.219 30.8267 562.324 29.57 569.284 29.57C570.057 31.2133 570.444 33.0983 570.444 35.225C570.444 42.2817 568.317 56.6367 564.064 78.29C559.811 99.8467 557.684 114.492 557.684 122.225C557.684 124.545 558.216 125.705 559.279 125.705C559.859 125.705 561.696 124.787 564.789 122.95L566.239 122.08L568.994 127.155ZM534.049 80.32C530.666 80.32 527.717 83.655 525.204 90.325C522.787 96.995 521.579 103.617 521.579 110.19C521.579 116.667 522.014 120.823 522.884 122.66C523.851 124.497 525.252 125.415 527.089 125.415C530.279 125.415 533.421 124.11 536.514 121.5C536.804 117.633 538.979 104.777 543.039 82.93C539.752 81.19 536.756 80.32 534.049 80.32Z" fill="#FB923C"/>
</g>
<defs>
<clipPath id="clip0_153_2">
<rect width="589" height="170" fill="white"/>
</clipPath>
</defs>
</svg>
